<svg xmlns="http://www.w3.org/2000/svg" version="1.1" xmlns:xlink="http://www.w3.org/1999/xlink" xmlns:svgjs="http://svgjs.dev/svgjs" width="100%" height="100%" viewBox="0 0 1000 600"><rect width="1000" height="600" x="0" y="0" fill="#032541"/><g><rect width="333.3333333333333" height="333.3333333333333" rx="13.333333333333334" ry="13.333333333333334" y="155.40029534052815" fill="#032541" transform="matrix(0.938592465717849,0,0,0.938592465717849,0,-2.289688846443269)" x="133.1780700683594"/><path d="M308.97851144250535 396.21251737393527L285.43696747094475 394.94557570838197L260.18652543887026 396.21251737393527Q259.5383227262615 395.56431466132653 259.5383227262615 392.5000836562674Q259.5383227262615 389.43585265120817 260.80526439181483 388.1394472259908L260.80526439181483 388.1394472259908Q267.1694364792455 388.1394472259908 271.20597155321775 385.81181021253235Q275.24250662719 383.4841731990739 275.03626030954183 377.1200011116432L275.03626030954183 377.1200011116432L270.5872326002732 283.7788104959934L225.38982527564974 396.21251737393527Q224.53537624539283 397.06696640419216 220.73455124873286 397.06696640419216Q216.90426249240883 397.06696640419216 216.25605977980015 396.21251737393527L216.25605977980015 396.21251737393527L171.9425652450977 283.7788104959934Q166.19713211061168 377.9744501419001 166.19713211061168 378.3869427771965L166.19713211061168 378.3869427771965Q166.19713211061168 388.1394472259908 180.4281280283386 388.1394472259908L180.4281280283386 388.1394472259908Q181.90131601154013 390.05459160415273 181.90131601154013 392.9125762915638Q181.90131601154013 395.80002473863885 181.48882337624372 396.21251737393527L181.48882337624372 396.21251737393527L157.29907669207435 394.94557570838197L136.0851697339721 396.21251737393527Q135.43696702136342 395.56431466132653 135.43696702136342 392.5000836562674Q135.43696702136342 389.43585265120817 136.70390868691675 388.1394472259908L136.70390868691675 388.1394472259908Q144.12877612225253 388.1394472259908 147.22247088697577 385.6055638948841Q150.28670189203498 383.0716805637775 150.72865828699545 377.1200011116432L150.72865828699545 377.1200011116432L160.03920634082922 266.1594822169029Q160.03920634082922 258.9703248588794 157.91781564501898 257.1435717597094Q155.79642494920876 255.34628242020355 147.31086216596788 255.1400361025553L147.31086216596788 255.1400361025553Q146.04392050041454 254.07934075465022 146.04392050041454 250.77939967227874Q146.04392050041454 247.50892234957132 146.48587689537501 247.06696595461088L146.48587689537501 247.06696595461088Q155.38393231391234 248.36337137982824 161.5418580836948 248.36337137982824Q167.69978385347724 248.36337137982824 177.8647809375679 247.06696595461088L177.8647809375679 247.06696595461088L222.62023186723084 369.04693096369874L270.35152252296086 247.06696595461088Q280.5459833667155 248.36337137982824 285.31911243228853 248.36337137982824Q290.09224149786155 248.36337137982824 298.99029691639896 247.06696595461088L298.99029691639896 247.06696595461088Q299.6384996290076 247.71516866721956 299.6384996290076 250.89725471093487Q299.6384996290076 254.07934075465022 298.57780428110243 255.1400361025553L298.57780428110243 255.1400361025553Q290.50473413315797 255.1400361025553 287.55835816675494 257.673919433662Q284.58251844068786 260.2372665244327 284.58251844068786 264.89254055134955L284.58251844068786 264.89254055134955Q284.58251844068786 265.54074326395823 294.33502288948205 377.1200011116432L294.33502288948205 377.1200011116432Q294.74751552477846 383.0716805637775 297.84121028950176 385.6055638948841Q300.9054412945609 388.1394472259908 308.33030872989673 388.1394472259908L308.33030872989673 388.1394472259908Q309.39100407780177 389.20014257389585 309.39100407780177 392.5000836562674Q309.39100407780177 395.80002473863885 308.97851144250535 396.21251737393527L308.97851144250535 396.21251737393527ZM409.744569493491 247.06696595461088L434.553055130605 248.98211033277286L463.8400322366517 247.06696595461088Q464.25252487194814 247.92141498486777 464.25252487194814 250.77939967227874Q464.25252487194814 253.66684811935377 462.77933688874657 255.1400361025553L462.77933688874657 255.1400361025553Q455.560715771059 255.1400361025553 451.11168806179035 259.58906381182396Q446.6626603525217 264.03809152109267 442.83237159619773 273.58434965223864L442.83237159619773 273.58434965223864L394.04038559256253 396.21251737393527Q393.18593656230564 397.06696640419216 389.3851115656456 397.06696640419216Q385.55482280932165 397.06696640419216 384.906620096713 396.21251737393527L384.906620096713 396.21251737393527L333.5807507619712 273.58434965223864Q328.9254767350543 262.3586572202429 326.1558833266354 259.58906381182396L326.1558833266354 259.58906381182396Q321.50060929971846 255.1400361025553 311.5123947736121 255.1400361025553L311.5123947736121 255.1400361025553Q310.0392067904105 254.07934075465022 310.0392067904105 250.77939967227874Q310.0392067904105 247.50892234957132 310.4516994257069 247.06696595461088L310.4516994257069 247.06696595461088L341.86006722756383 248.98211033277286L372.41398599916386 247.06696595461088Q372.8264786344603 247.92141498486777 372.8264786344603 250.77939967227874Q372.8264786344603 253.66684811935377 371.3532906512588 255.1400361025553L371.3532906512588 255.1400361025553Q353.0857596595596 255.1400361025553 353.0857596595596 265.74698958160644L353.0857596595596 265.74698958160644Q353.0857596595596 269.13532194297 354.79465772007336 273.58434965223864L354.79465772007336 273.58434965223864L391.5065022614559 369.28264104101106L427.57014409022963 273.58434965223864Q429.0433320734312 269.13532194297 429.0433320734312 266.3951922942151L429.0433320734312 266.3951922942151Q429.0433320734312 255.1400361025553 410.80526484139614 255.1400361025553L410.80526484139614 255.1400361025553Q409.3026130985305 254.07934075465022 409.3026130985305 250.77939967227874Q409.3026130985305 247.50892234957132 409.744569493491 247.06696595461088L409.744569493491 247.06696595461088Z " fill="#44bfc5" transform="matrix(0.938592465717849,0,0,0.938592465717849,0,-2.289688846443269)"/><path d="M588.7036180269907 268.55201009974826Q588.7036180269907 272.1097911271761 586.351529458858 274.2444597436328Q583.9994408907252 276.37912836008945 580.4416598632973 276.37912836008945Q576.8838788358695 276.37912836008945 574.7492102194127 274.1061015925662Q572.6145416029561 271.83307482504284 572.6145416029561 268.4136519486816Q572.6145416029561 264.9942290723205 574.7492102194127 262.58284415373055Q576.8838788358695 260.17145923514056 580.3033017122306 260.17145923514056Q583.7227245885919 260.17145923514056 586.2131713077913 262.58284415373055Q588.7036180269907 264.9942290723205 588.7036180269907 268.55201009974826ZM562.5143965750916 388.66665067574195L562.5143965750916 388.66665067574195Q562.5143965750916 390.38624483899866 566.1512394031289 390.38624483899866Q569.7683167810138 390.38624483899866 573.3260978084417 385.24722779938077Q576.8838788358695 380.1279762099151 576.7455206848028 371.01610368966954L576.7455206848028 371.01610368966954L575.757248177184 304.84137657951203Q575.599124575965 297.5874563735898 563.9375089860627 297.5874563735898L563.9375089860627 297.5874563735898Q563.5026690827104 297.17238192038985 563.5026690827104 295.2353678054569Q563.5026690827104 293.31811914067634 564.372348889415 292.46820478412417L564.372348889415 292.46820478412417Q573.8992958628606 291.75664857863865 581.2915742198495 287.4873113457252L581.2915742198495 287.4873113457252Q582.4379703286874 286.9141132913063 583.9994408907252 286.9141132913063Q585.5609114527629 286.9141132913063 586.4305912594674 287.4873113457252L586.4305912594674 287.4873113457252L586.8456657126674 368.7430769221462Q586.984023863734 381.68944677195293 580.7974379660401 389.37820688122747Q574.6108520683462 397.066966990502 563.9375089860627 397.066966990502L563.9375089860627 397.066966990502Q557.9683430400449 397.066966990502 553.8966603086552 394.4974584706931Q549.8447430274181 391.9477154010365 549.8447430274181 386.82846381157094L549.8447430274181 386.82846381157094Q549.8447430274181 383.68575723734295 551.9201152934176 381.6301504214957Q553.9757221092648 379.55477815549625 556.9010087318165 379.55477815549625Q559.806529904216 379.55477815549625 561.7237785689964 380.9778905664674Q563.6607926839293 382.40100297743857 563.6607926839293 384.3380170923714Q563.6607926839293 386.25526575715196 563.0875946295105 387.2435382647708Q562.5143965750916 388.251576222542 562.5143965750916 388.66665067574195ZM635.8046857401047 355.79670707233936L618.727336808451 355.2235090179205L600.6617153691788 355.79670707233936Q600.2268754658264 355.36186716898703 600.2268754658264 353.4446185042066Q600.2268754658264 351.527369839426 601.0767898223786 350.6774554828737L601.0767898223786 350.6774554828737Q606.7692394662632 350.6774554828737 609.3980443365293 349.03692312022656Q612.0466146569478 347.3963907575792 612.0466146569478 343.4235352769515L612.0466146569478 343.4235352769515L612.6000472612143 265.15235267353944Q612.6000472612143 257.87866701746486 600.8000735202453 257.87866701746486L600.8000735202453 257.87866701746486Q600.3652336168931 257.4635925642649 600.3652336168931 255.54634389948438Q600.3652336168931 253.60932978455145 601.2151479734453 252.75941542799924L601.2151479734453 252.75941542799924Q608.6271917805866 252.18621737358032 616.4543100409278 247.64016383853365L616.4543100409278 247.64016383853365Q617.5809406996133 247.06696578411473 619.1621767118033 247.06696578411473Q620.7236472738412 247.06696578411473 621.5735616303933 247.64016383853365L621.5735616303933 247.64016383853365L623.70823024685 316.22627586728106Q625.8428988633067 316.22627586728106 629.1239635886012 312.88591479152933Q632.3852628637434 309.5455537157777 635.6663275890379 306.205192640026Q638.9276268641802 302.86483156427437 640.5681592268274 301.2242992016271Q642.2086915894747 299.58376683897984 643.6318040004459 298.02229627694203L643.6318040004459 298.02229627694203Q646.2013125202548 295.1760714549998 646.2013125202548 294.16803349722863L646.2013125202548 294.16803349722863Q646.2013125202548 292.6065629351908 640.5088628763702 292.6065629351908L640.5088628763702 292.6065629351908Q639.6391830696657 291.75664857863865 639.6391830696657 289.8393999138581Q639.6391830696657 287.9221512490775 640.074022973018 287.4873113457252L640.074022973018 287.4873113457252L653.0203928228248 288.33722570227746L668.1014312890883 287.4873113457252Q668.397913041374 287.7640276478585 668.397913041374 289.8393999138581Q668.397913041374 291.8950067297053 667.6863568358883 292.6065629351908L667.6863568358883 292.6065629351908Q658.0012862612238 292.6065629351908 653.3168745751104 297.5874563735898L653.3168745751104 297.5874563735898L634.1048570270002 318.36094448373774Q661.1439928354516 345.8349201955415 664.3459957601367 348.2463051141315Q667.5479986848218 350.6774554828737 673.0823247274873 350.6774554828737L673.0823247274873 350.6774554828737Q673.7938809329728 351.38901168835935 673.7938809329728 353.4446185042066Q673.7938809329728 355.51999077020605 673.5171646308395 355.79670707233936L673.5171646308395 355.79670707233936L660.2743130287471 355.2235090179205L643.3550876983126 355.79670707233936Q642.9202477949602 355.36186716898703 642.9202477949602 353.4446185042066Q642.9202477949602 351.527369839426 643.7701621515124 350.6774554828737L643.7701621515124 350.6774554828737Q648.1778575354925 350.6774554828737 648.1778575354925 348.4637250658076Q648.1778575354925 346.2697600988938 629.8355197940868 326.4845444963646L629.8355197940868 326.4845444963646Q627.1276531232112 323.6383196744224 623.8465883979167 323.6383196744224L623.8465883979167 323.6383196744224L624.5581446034022 343.4235352769515Q624.696502754469 347.3963907575792 627.1869494736683 349.03692312022656Q629.6773961928678 350.6774554828737 635.3698458367523 350.6774554828737L635.3698458367523 350.6774554828737Q636.0814020422379 351.38901168835935 636.0814020422379 353.4446185042066Q636.0814020422379 355.51999077020605 635.8046857401047 355.79670707233936L635.8046857401047 355.79670707233936ZM760.6037380022116 324.62659218204124L760.6037380022116 324.62659218204124Q755.2077701106127 324.3498758799079 739.7709535416064 324.3498758799079Q724.3143715224478 324.3498758799079 719.1951199329823 324.62659218204124L719.1951199329823 324.62659218204124Q717.9103656730778 321.5036510579656 717.9103656730778 319.07250068922326Q717.9103656730778 316.6611157706334 718.7800454797823 315.67284326301456L718.7800454797823 315.67284326301456Q721.329788549439 315.94955956514775 739.8302498920636 315.94955956514775Q758.3307112346882 315.94955956514775 761.0385779055639 315.67284326301456L761.0385779055639 315.67284326301456Q761.7501341110494 318.2225863326711 761.7501341110494 320.8513912029372Q761.7501341110494 323.49996152335575 760.6037380022116 324.62659218204124ZM830.1978879887301 331.0305980314113Q830.3362461397969 340.2808287027236 832.2732602547297 344.3327459839609Q834.1905089195103 348.4044287153505 839.8038967627853 348.4044287153505Q845.4370500562127 348.4044287153505 852.3944885098493 344.550165935637L852.3944885098493 344.550165935637Q852.9676865642682 345.12336399005585 853.8176009208205 346.68483455209366Q854.687280727525 348.2463051141315 854.687280727525 348.81950316855034Q854.687280727525 349.3927012229693 854.529157126306 349.531059374036L854.529157126306 349.531059374036Q846.2869644127649 357.2198194833105 835.3171395781958 357.2198194833105L835.3171395781958 357.2198194833105Q818.1014324954756 357.2198194833105 818.1014324954756 333.73846470228693L818.1014324954756 333.73846470228693Q818.1014324954756 333.0269084968013 818.8129887009611 296.3027021136853L818.8129887009611 296.3027021136853L809.8592397819345 296.3027021136853Q808.9895599752299 295.452787757133 808.9895599752299 293.53553909235256Q808.9895599752299 291.618290427572 809.4243998785822 291.18345052421967L809.4243998785822 291.18345052421967Q816.8166782355711 289.4836218111153 819.8803230091895 285.70842083201137Q822.9439677828079 281.9332198529073 824.2287220427124 275.252497701404L824.2287220427124 275.252497701404Q824.8019200971313 274.6792996469851 826.6401069613023 274.6792996469851Q828.4980592756258 274.6792996469851 829.347973632178 275.252497701404L829.347973632178 275.252497701404L829.6246899343113 288.91042375669633L851.2678578511639 288.91042375669633Q851.9794140566494 290.90673422208647 851.9794140566494 293.04140283854315Q851.9794140566494 295.1760714549998 850.8330179478116 296.3027021136853L850.8330179478116 296.3027021136853L829.6246899343113 296.3027021136853L830.1978879887301 331.0305980314113ZM902.6382627971911 287.4873113457252L919.004055523359 288.33722570227746L931.9504253731659 287.4873113457252Q932.2469071254515 287.7640276478585 932.2469071254515 289.8393999138581Q932.2469071254515 291.8950067297053 931.5353509199658 292.6065629351908L931.5353509199658 292.6065629351908Q927.1078900858336 292.6065629351908 925.1313450705959 293.8913171950953Q923.1350346052058 295.1760714549998 921.8502803453014 298.73385248242766L921.8502803453014 298.73385248242766L900.3652360296678 355.79670707233936Q899.7920379752488 356.36990512675834 895.7994170444688 356.36990512675834Q891.826561563841 356.36990512675834 891.3917216604887 355.79670707233936L891.3917216604887 355.79670707233936L867.4952924262652 298.73385248242766Q866.0721800152941 295.1760714549998 863.9968077492945 293.8913171950953Q861.9412009334474 292.6065629351908 856.8219493439817 292.6065629351908L856.8219493439817 292.6065629351908Q855.9522695372772 291.75664857863865 855.9522695372772 289.8393999138581Q855.9522695372772 287.9221512490775 856.3871094406295 287.4873113457252L856.3871094406295 287.4873113457252L872.6145440157308 288.33722570227746L889.6918929473843 287.4873113457252Q890.2650910018032 287.9221512490775 890.2650910018032 289.7603381132486Q890.2650910018032 291.618290427572 889.2570530440321 292.6065629351908L889.2570530440321 292.6065629351908Q880.1451805237863 292.6065629351908 880.1451805237863 296.16434396261866L880.1451805237863 296.16434396261866Q880.1451805237863 296.7375420170375 880.7183785782053 298.73385248242766L880.7183785782053 298.73385248242766L896.9458131533065 344.2734496335037L911.3152954140844 298.73385248242766Q911.7501353174367 297.3107400714565 911.7501353174367 296.46082571490433L911.7501353174367 296.46082571490433Q911.7501353174367 292.6065629351908 903.0731027005434 292.6065629351908L903.0731027005434 292.6065629351908Q902.2034228938387 291.75664857863865 902.2034228938387 289.8393999138581Q902.2034228938387 287.9221512490775 902.6382627971911 287.4873113457252L902.6382627971911 287.4873113457252Z " fill="#44bfc5" transform="matrix(0.938592465717849,0,0,0.938592465717849,0,-2.289688846443269)"/></g></svg>